<mxfile host="app.diagrams.net" agent="Mozilla/5.0 (Windows NT 10.0; Win64; x64) AppleWebKit/537.36 (KHTML, like Gecko) Chrome/131.0.0.0 Safari/537.36 Edg/131.0.0.0" version="25.0.3">
  <diagram name="Seite-1" id="H-5Dob3Q5OJL4jMhZZkv">
    <mxGraphModel dx="1188" dy="651" grid="1" gridSize="10" guides="1" tooltips="1" connect="1" arrows="1" fold="1" page="1" pageScale="1" pageWidth="1169" pageHeight="827" math="0" shadow="0">
      <root>
        <mxCell id="0" />
        <mxCell id="1" parent="0" />
        <mxCell id="yA1wTyDyi_vaNBUE8qGH-2" value="" style="rounded=0;whiteSpace=wrap;html=1;" parent="1" vertex="1">
          <mxGeometry x="16.25" y="610" width="670" height="100" as="geometry" />
        </mxCell>
        <mxCell id="yA1wTyDyi_vaNBUE8qGH-15" value="Data Property: datatype" style="rounded=0;whiteSpace=wrap;html=1;snapToPoint=1;points=[[0.1,0],[0.2,0],[0.3,0],[0.4,0],[0.5,0],[0.6,0],[0.7,0],[0.8,0],[0.9,0],[0,0.1],[0,0.3],[0,0.5],[0,0.7],[0,0.9],[0.1,1],[0.2,1],[0.3,1],[0.4,1],[0.5,1],[0.6,1],[0.7,1],[0.8,1],[0.9,1],[1,0.1],[1,0.3],[1,0.5],[1,0.7],[1,0.9]];dashed=1;" parent="1" vertex="1">
          <mxGeometry x="26.25" y="659.9999999999999" width="136" height="30" as="geometry" />
        </mxCell>
        <mxCell id="yA1wTyDyi_vaNBUE8qGH-16" value="Class" style="rounded=0;whiteSpace=wrap;html=1;snapToPoint=1;points=[[0.1,0],[0.2,0],[0.3,0],[0.4,0],[0.5,0],[0.6,0],[0.7,0],[0.8,0],[0.9,0],[0,0.1],[0,0.3],[0,0.5],[0,0.7],[0,0.9],[0.1,1],[0.2,1],[0.3,1],[0.4,1],[0.5,1],[0.6,1],[0.7,1],[0.8,1],[0.9,1],[1,0.1],[1,0.3],[1,0.5],[1,0.7],[1,0.9]];" parent="1" vertex="1">
          <mxGeometry x="26.25" y="629.9999999999999" width="136" height="30" as="geometry" />
        </mxCell>
        <mxCell id="yA1wTyDyi_vaNBUE8qGH-21" value="&lt;u&gt;Individual&lt;/u&gt;" style="rounded=0;whiteSpace=wrap;html=1;snapToPoint=1;points=[[0.1,0],[0.2,0],[0.3,0],[0.4,0],[0.5,0],[0.6,0],[0.7,0],[0.8,0],[0.9,0],[0,0.1],[0,0.3],[0,0.5],[0,0.7],[0,0.9],[0.1,1],[0.2,1],[0.3,1],[0.4,1],[0.5,1],[0.6,1],[0.7,1],[0.8,1],[0.9,1],[1,0.1],[1,0.3],[1,0.5],[1,0.7],[1,0.9]];" parent="1" vertex="1">
          <mxGeometry x="186.25" y="630" width="100" height="30" as="geometry" />
        </mxCell>
        <mxCell id="yA1wTyDyi_vaNBUE8qGH-30" value="" style="endArrow=classic;html=1;endSize=8;arcSize=0;rounded=0;" parent="1" edge="1">
          <mxGeometry width="50" height="50" relative="1" as="geometry">
            <mxPoint x="316.25" y="660" as="sourcePoint" />
            <mxPoint x="436.25" y="660" as="targetPoint" />
          </mxGeometry>
        </mxCell>
        <mxCell id="yA1wTyDyi_vaNBUE8qGH-31" value="&lt;div&gt;&lt;font style=&quot;font-size: 11px;&quot;&gt;Object Property&lt;/font&gt;&lt;/div&gt;" style="text;html=1;align=center;verticalAlign=middle;resizable=0;points=[];labelBackgroundColor=#ffffff;" parent="yA1wTyDyi_vaNBUE8qGH-30" vertex="1" connectable="0">
          <mxGeometry x="-0.1269" relative="1" as="geometry">
            <mxPoint x="2" as="offset" />
          </mxGeometry>
        </mxCell>
        <mxCell id="yA1wTyDyi_vaNBUE8qGH-32" value="" style="endArrow=block;html=1;fontColor=#000099;endFill=0;endSize=8;arcSize=0;rounded=0;" parent="1" edge="1">
          <mxGeometry width="50" height="50" relative="1" as="geometry">
            <mxPoint x="316.25" y="630" as="sourcePoint" />
            <mxPoint x="436.25" y="630" as="targetPoint" />
          </mxGeometry>
        </mxCell>
        <mxCell id="yA1wTyDyi_vaNBUE8qGH-35" value="subClassOf" style="edgeLabel;html=1;align=center;verticalAlign=middle;resizable=0;points=[];" parent="yA1wTyDyi_vaNBUE8qGH-32" vertex="1" connectable="0">
          <mxGeometry x="0.0908" y="-1" relative="1" as="geometry">
            <mxPoint x="-12" y="-1" as="offset" />
          </mxGeometry>
        </mxCell>
        <mxCell id="yA1wTyDyi_vaNBUE8qGH-34" value="Reused Class" style="rounded=0;whiteSpace=wrap;html=1;snapToPoint=1;points=[[0.1,0],[0.2,0],[0.3,0],[0.4,0],[0.5,0],[0.6,0],[0.7,0],[0.8,0],[0.9,0],[0,0.1],[0,0.3],[0,0.5],[0,0.7],[0,0.9],[0.1,1],[0.2,1],[0.3,1],[0.4,1],[0.5,1],[0.6,1],[0.7,1],[0.8,1],[0.9,1],[1,0.1],[1,0.3],[1,0.5],[1,0.7],[1,0.9]];fillColor=#CCCCCC;" parent="1" vertex="1">
          <mxGeometry x="466.25" y="620" width="100" height="30" as="geometry" />
        </mxCell>
        <mxCell id="yA1wTyDyi_vaNBUE8qGH-41" value="" style="endArrow=classic;html=1;endSize=8;dashed=1;arcSize=0;rounded=0;" parent="1" edge="1">
          <mxGeometry width="50" height="50" relative="1" as="geometry">
            <mxPoint x="316.25" y="689.6" as="sourcePoint" />
            <mxPoint x="436.25" y="689.6" as="targetPoint" />
          </mxGeometry>
        </mxCell>
        <mxCell id="yA1wTyDyi_vaNBUE8qGH-42" value="&lt;div&gt;rdf:type&lt;/div&gt;" style="edgeLabel;html=1;align=center;verticalAlign=middle;resizable=0;points=[];" parent="yA1wTyDyi_vaNBUE8qGH-41" vertex="1" connectable="0">
          <mxGeometry x="-0.1912" y="-1" relative="1" as="geometry">
            <mxPoint x="6" y="-1" as="offset" />
          </mxGeometry>
        </mxCell>
        <mxCell id="yA1wTyDyi_vaNBUE8qGH-43" value="fmea" style="rounded=0;whiteSpace=wrap;html=1;snapToPoint=1;points=[[0.1,0],[0.2,0],[0.3,0],[0.4,0],[0.5,0],[0.6,0],[0.7,0],[0.8,0],[0.9,0],[0,0.1],[0,0.3],[0,0.5],[0,0.7],[0,0.9],[0.1,1],[0.2,1],[0.3,1],[0.4,1],[0.5,1],[0.6,1],[0.7,1],[0.8,1],[0.9,1],[1,0.1],[1,0.3],[1,0.5],[1,0.7],[1,0.9]];fillColor=#A9C4EB;strokeColor=#7EA6E0;" parent="1" vertex="1">
          <mxGeometry x="466.25" y="660" width="100" height="30" as="geometry" />
        </mxCell>
        <mxCell id="yA1wTyDyi_vaNBUE8qGH-44" value="ishi" style="rounded=0;whiteSpace=wrap;html=1;snapToPoint=1;points=[[0.1,0],[0.2,0],[0.3,0],[0.4,0],[0.5,0],[0.6,0],[0.7,0],[0.8,0],[0.9,0],[0,0.1],[0,0.3],[0,0.5],[0,0.7],[0,0.9],[0.1,1],[0.2,1],[0.3,1],[0.4,1],[0.5,1],[0.6,1],[0.7,1],[0.8,1],[0.9,1],[1,0.1],[1,0.3],[1,0.5],[1,0.7],[1,0.9]];fillColor=#B9E0A5;strokeColor=#97D077;" parent="1" vertex="1">
          <mxGeometry x="576.25" y="660" width="100" height="30" as="geometry" />
        </mxCell>
        <mxCell id="yA1wTyDyi_vaNBUE8qGH-45" value="&lt;div style=&quot;text-align: left;&quot;&gt;&lt;div&gt;&amp;nbsp;&lt;/div&gt;&lt;div&gt;&lt;span style=&quot;background-color: var(--colorNeutralBackground1); color: var(--colorNeutralForeground1);&quot;&gt;&lt;b&gt;&amp;nbsp;dads&lt;/b&gt;:&lt;/span&gt;&lt;span style=&quot;background-color: var(--colorNeutralBackground1); color: var(--colorNeutralForeground1);&quot;&gt;&amp;nbsp;https://xlinux.nist.gov/dads/&lt;/span&gt;&lt;/div&gt;&lt;/div&gt;&lt;div style=&quot;text-align: left;&quot;&gt;&lt;b&gt;&amp;nbsp;rdf&lt;/b&gt;: http://www.w3.org/1999/02/22-rdf-syntax-ns#&amp;nbsp;&amp;nbsp;&lt;/div&gt;&lt;div style=&quot;text-align: left;&quot;&gt;&amp;nbsp;&lt;b&gt;rdfs&lt;/b&gt;:&amp;nbsp;http://www.w3.org/2000/01/rdf-schema#&lt;/div&gt;&lt;div style=&quot;text-align: left;&quot;&gt;&lt;span style=&quot;background-color: var(--colorNeutralBackground1); color: var(--colorNeutralForeground1);&quot;&gt;&amp;nbsp;&lt;b&gt;xsd&lt;/b&gt;:&amp;nbsp;&lt;/span&gt;&lt;span style=&quot;background-color: initial; text-align: center;&quot;&gt;http://www.w3.org/2001/XMLSchema#&lt;/span&gt;&lt;/div&gt;&lt;div style=&quot;text-align: left;&quot;&gt;&lt;span style=&quot;background-color: initial; font-size: 12px;&quot;&gt;&lt;br&gt;&lt;/span&gt;&lt;/div&gt;" style="shape=note;whiteSpace=wrap;html=1;backgroundOutline=1;darkOpacity=0.05;" parent="1" vertex="1">
          <mxGeometry x="696.25" y="610" width="290" height="100" as="geometry" />
        </mxCell>
        <mxCell id="yA1wTyDyi_vaNBUE8qGH-46" value="" style="endArrow=none;dashed=1;html=1;rounded=0;strokeWidth=3;strokeColor=#7EA6E0;" parent="1" edge="1">
          <mxGeometry width="50" height="50" relative="1" as="geometry">
            <mxPoint x="16.25" y="343.5" as="sourcePoint" />
            <mxPoint x="896.25" y="350" as="targetPoint" />
          </mxGeometry>
        </mxCell>
        <mxCell id="yA1wTyDyi_vaNBUE8qGH-52" value="dads:WeightedGraph" style="rounded=0;whiteSpace=wrap;html=1;snapToPoint=1;points=[[0.1,0],[0.2,0],[0.3,0],[0.4,0],[0.5,0],[0.6,0],[0.7,0],[0.8,0],[0.9,0],[0,0.1],[0,0.3],[0,0.5],[0,0.7],[0,0.9],[0.1,1],[0.2,1],[0.3,1],[0.4,1],[0.5,1],[0.6,1],[0.7,1],[0.8,1],[0.9,1],[1,0.1],[1,0.3],[1,0.5],[1,0.7],[1,0.9]];fillColor=#CCCCCC;" parent="1" vertex="1">
          <mxGeometry x="86.25" y="10" width="140" height="30" as="geometry" />
        </mxCell>
        <mxCell id="yA1wTyDyi_vaNBUE8qGH-53" value="dads:RootedTree" style="rounded=0;whiteSpace=wrap;html=1;snapToPoint=1;points=[[0.1,0],[0.2,0],[0.3,0],[0.4,0],[0.5,0],[0.6,0],[0.7,0],[0.8,0],[0.9,0],[0,0.1],[0,0.3],[0,0.5],[0,0.7],[0,0.9],[0.1,1],[0.2,1],[0.3,1],[0.4,1],[0.5,1],[0.6,1],[0.7,1],[0.8,1],[0.9,1],[1,0.1],[1,0.3],[1,0.5],[1,0.7],[1,0.9]];fillColor=#CCCCCC;" parent="1" vertex="1">
          <mxGeometry x="16.25" y="70" width="120" height="30" as="geometry" />
        </mxCell>
        <mxCell id="yA1wTyDyi_vaNBUE8qGH-54" value="dads:Root" style="rounded=0;whiteSpace=wrap;html=1;snapToPoint=1;points=[[0.1,0],[0.2,0],[0.3,0],[0.4,0],[0.5,0],[0.6,0],[0.7,0],[0.8,0],[0.9,0],[0,0.1],[0,0.3],[0,0.5],[0,0.7],[0,0.9],[0.1,1],[0.2,1],[0.3,1],[0.4,1],[0.5,1],[0.6,1],[0.7,1],[0.8,1],[0.9,1],[1,0.1],[1,0.3],[1,0.5],[1,0.7],[1,0.9]];fillColor=#CCCCCC;" parent="1" vertex="1">
          <mxGeometry x="236.25" y="10" width="100" height="30" as="geometry" />
        </mxCell>
        <mxCell id="yA1wTyDyi_vaNBUE8qGH-59" value="dads:internalNode" style="rounded=0;whiteSpace=wrap;html=1;snapToPoint=1;points=[[0.1,0],[0.2,0],[0.3,0],[0.4,0],[0.5,0],[0.6,0],[0.7,0],[0.8,0],[0.9,0],[0,0.1],[0,0.3],[0,0.5],[0,0.7],[0,0.9],[0.1,1],[0.2,1],[0.3,1],[0.4,1],[0.5,1],[0.6,1],[0.7,1],[0.8,1],[0.9,1],[1,0.1],[1,0.3],[1,0.5],[1,0.7],[1,0.9]];fillColor=#CCCCCC;" parent="1" vertex="1">
          <mxGeometry x="706.25" y="279" width="130" height="30" as="geometry" />
        </mxCell>
        <mxCell id="yA1wTyDyi_vaNBUE8qGH-60" value="dads:leaf" style="rounded=0;whiteSpace=wrap;html=1;snapToPoint=1;points=[[0.1,0],[0.2,0],[0.3,0],[0.4,0],[0.5,0],[0.6,0],[0.7,0],[0.8,0],[0.9,0],[0,0.1],[0,0.3],[0,0.5],[0,0.7],[0,0.9],[0.1,1],[0.2,1],[0.3,1],[0.4,1],[0.5,1],[0.6,1],[0.7,1],[0.8,1],[0.9,1],[1,0.1],[1,0.3],[1,0.5],[1,0.7],[1,0.9]];fillColor=#CCCCCC;" parent="1" vertex="1">
          <mxGeometry x="496.25" y="279" width="100" height="30" as="geometry" />
        </mxCell>
        <mxCell id="yA1wTyDyi_vaNBUE8qGH-61" value="dads:vertex" style="rounded=0;whiteSpace=wrap;html=1;snapToPoint=1;points=[[0.1,0],[0.2,0],[0.3,0],[0.4,0],[0.5,0],[0.6,0],[0.7,0],[0.8,0],[0.9,0],[0,0.1],[0,0.3],[0,0.5],[0,0.7],[0,0.9],[0.1,1],[0.2,1],[0.3,1],[0.4,1],[0.5,1],[0.6,1],[0.7,1],[0.8,1],[0.9,1],[1,0.1],[1,0.3],[1,0.5],[1,0.7],[1,0.9]];fillColor=#CCCCCC;" parent="1" vertex="1">
          <mxGeometry x="476.25" y="125" width="120" height="30" as="geometry" />
        </mxCell>
        <mxCell id="yA1wTyDyi_vaNBUE8qGH-68" value="ishi:Effect" style="rounded=0;whiteSpace=wrap;html=1;snapToPoint=1;points=[[0.1,0],[0.2,0],[0.3,0],[0.4,0],[0.5,0],[0.6,0],[0.7,0],[0.8,0],[0.9,0],[0,0.1],[0,0.3],[0,0.5],[0,0.7],[0,0.9],[0.1,1],[0.2,1],[0.3,1],[0.4,1],[0.5,1],[0.6,1],[0.7,1],[0.8,1],[0.9,1],[1,0.1],[1,0.3],[1,0.5],[1,0.7],[1,0.9]];fillColor=#B9E0A5;strokeColor=#97D077;" parent="1" vertex="1">
          <mxGeometry x="366.25" y="90" width="100" height="30" as="geometry" />
        </mxCell>
        <mxCell id="yA1wTyDyi_vaNBUE8qGH-69" value="ishi:Problem" style="rounded=0;whiteSpace=wrap;html=1;snapToPoint=1;points=[[0.1,0],[0.2,0],[0.3,0],[0.4,0],[0.5,0],[0.6,0],[0.7,0],[0.8,0],[0.9,0],[0,0.1],[0,0.3],[0,0.5],[0,0.7],[0,0.9],[0.1,1],[0.2,1],[0.3,1],[0.4,1],[0.5,1],[0.6,1],[0.7,1],[0.8,1],[0.9,1],[1,0.1],[1,0.3],[1,0.5],[1,0.7],[1,0.9]];fillColor=#B9E0A5;strokeColor=#97D077;" parent="1" vertex="1">
          <mxGeometry x="236.25" y="90" width="100" height="30" as="geometry" />
        </mxCell>
        <mxCell id="yA1wTyDyi_vaNBUE8qGH-72" value="ishi:MajorCause" style="rounded=0;whiteSpace=wrap;html=1;snapToPoint=1;points=[[0.1,0],[0.2,0],[0.3,0],[0.4,0],[0.5,0],[0.6,0],[0.7,0],[0.8,0],[0.9,0],[0,0.1],[0,0.3],[0,0.5],[0,0.7],[0,0.9],[0.1,1],[0.2,1],[0.3,1],[0.4,1],[0.5,1],[0.6,1],[0.7,1],[0.8,1],[0.9,1],[1,0.1],[1,0.3],[1,0.5],[1,0.7],[1,0.9]];fillColor=#B9E0A5;strokeColor=#97D077;" parent="1" vertex="1">
          <mxGeometry x="351.25" y="279" width="100" height="30" as="geometry" />
        </mxCell>
        <mxCell id="yA1wTyDyi_vaNBUE8qGH-73" value="ishi:Diagram" style="rounded=0;whiteSpace=wrap;html=1;snapToPoint=1;points=[[0.1,0],[0.2,0],[0.3,0],[0.4,0],[0.5,0],[0.6,0],[0.7,0],[0.8,0],[0.9,0],[0,0.1],[0,0.3],[0,0.5],[0,0.7],[0,0.9],[0.1,1],[0.2,1],[0.3,1],[0.4,1],[0.5,1],[0.6,1],[0.7,1],[0.8,1],[0.9,1],[1,0.1],[1,0.3],[1,0.5],[1,0.7],[1,0.9]];fillColor=#B9E0A5;strokeColor=#97D077;" parent="1" vertex="1">
          <mxGeometry x="106.25" y="155" width="130" height="30" as="geometry" />
        </mxCell>
        <mxCell id="yA1wTyDyi_vaNBUE8qGH-76" value="dads:height: xsd:int" style="rounded=0;whiteSpace=wrap;html=1;snapToPoint=1;points=[[0.1,0],[0.2,0],[0.3,0],[0.4,0],[0.5,0],[0.6,0],[0.7,0],[0.8,0],[0.9,0],[0,0.1],[0,0.3],[0,0.5],[0,0.7],[0,0.9],[0.1,1],[0.2,1],[0.3,1],[0.4,1],[0.5,1],[0.6,1],[0.7,1],[0.8,1],[0.9,1],[1,0.1],[1,0.3],[1,0.5],[1,0.7],[1,0.9]];dashed=1;fillColor=none;strokeColor=#97D077;" parent="1" vertex="1">
          <mxGeometry x="16.25" y="100" width="120" height="30" as="geometry" />
        </mxCell>
        <mxCell id="yA1wTyDyi_vaNBUE8qGH-77" value="ishi:Factor" style="rounded=0;whiteSpace=wrap;html=1;snapToPoint=1;points=[[0.1,0],[0.2,0],[0.3,0],[0.4,0],[0.5,0],[0.6,0],[0.7,0],[0.8,0],[0.9,0],[0,0.1],[0,0.3],[0,0.5],[0,0.7],[0,0.9],[0.1,1],[0.2,1],[0.3,1],[0.4,1],[0.5,1],[0.6,1],[0.7,1],[0.8,1],[0.9,1],[1,0.1],[1,0.3],[1,0.5],[1,0.7],[1,0.9]];fillColor=#B9E0A5;strokeColor=#97D077;" parent="1" vertex="1">
          <mxGeometry x="336.25" y="155" width="130" height="30" as="geometry" />
        </mxCell>
        <mxCell id="yA1wTyDyi_vaNBUE8qGH-78" value="ishi:CauseEffect" style="rounded=0;whiteSpace=wrap;html=1;snapToPoint=1;points=[[0.1,0],[0.2,0],[0.3,0],[0.4,0],[0.5,0],[0.6,0],[0.7,0],[0.8,0],[0.9,0],[0,0.1],[0,0.3],[0,0.5],[0,0.7],[0,0.9],[0.1,1],[0.2,1],[0.3,1],[0.4,1],[0.5,1],[0.6,1],[0.7,1],[0.8,1],[0.9,1],[1,0.1],[1,0.3],[1,0.5],[1,0.7],[1,0.9]];fillColor=#B9E0A5;strokeColor=#97D077;" parent="1" vertex="1">
          <mxGeometry x="638.75" y="90" width="145" height="30" as="geometry" />
        </mxCell>
        <mxCell id="yA1wTyDyi_vaNBUE8qGH-79" value="ishi:Cause" style="rounded=0;whiteSpace=wrap;html=1;snapToPoint=1;points=[[0.1,0],[0.2,0],[0.3,0],[0.4,0],[0.5,0],[0.6,0],[0.7,0],[0.8,0],[0.9,0],[0,0.1],[0,0.3],[0,0.5],[0,0.7],[0,0.9],[0.1,1],[0.2,1],[0.3,1],[0.4,1],[0.5,1],[0.6,1],[0.7,1],[0.8,1],[0.9,1],[1,0.1],[1,0.3],[1,0.5],[1,0.7],[1,0.9]];fillColor=#B9E0A5;strokeColor=#97D077;" parent="1" vertex="1">
          <mxGeometry x="661.25" y="180" width="100" height="30" as="geometry" />
        </mxCell>
        <mxCell id="yA1wTyDyi_vaNBUE8qGH-80" value="ishi:RootCause" style="rounded=0;whiteSpace=wrap;html=1;snapToPoint=1;points=[[0.1,0],[0.2,0],[0.3,0],[0.4,0],[0.5,0],[0.6,0],[0.7,0],[0.8,0],[0.9,0],[0,0.1],[0,0.3],[0,0.5],[0,0.7],[0,0.9],[0.1,1],[0.2,1],[0.3,1],[0.4,1],[0.5,1],[0.6,1],[0.7,1],[0.8,1],[0.9,1],[1,0.1],[1,0.3],[1,0.5],[1,0.7],[1,0.9]];fillColor=#B9E0A5;strokeColor=#97D077;" parent="1" vertex="1">
          <mxGeometry x="496.25" y="234" width="100" height="30" as="geometry" />
        </mxCell>
        <mxCell id="yA1wTyDyi_vaNBUE8qGH-101" value="" style="endArrow=block;html=1;fontColor=#000099;endFill=0;endSize=8;arcSize=0;rounded=0;entryX=1;entryY=0.5;entryDx=0;entryDy=0;edgeStyle=orthogonalEdgeStyle;exitX=0.53;exitY=0.063;exitDx=0;exitDy=0;exitPerimeter=0;" parent="1" source="yA1wTyDyi_vaNBUE8qGH-73" target="yA1wTyDyi_vaNBUE8qGH-53" edge="1">
          <mxGeometry width="50" height="50" relative="1" as="geometry">
            <mxPoint x="156.25" y="150" as="sourcePoint" />
            <mxPoint x="196.25" y="249.66000000000003" as="targetPoint" />
          </mxGeometry>
        </mxCell>
        <mxCell id="yA1wTyDyi_vaNBUE8qGH-103" value="" style="endArrow=block;html=1;fontColor=#000099;endFill=0;endSize=8;arcSize=0;rounded=0;entryX=0.637;entryY=1.026;entryDx=0;entryDy=0;entryPerimeter=0;" parent="1" target="yA1wTyDyi_vaNBUE8qGH-52" edge="1">
          <mxGeometry width="50" height="50" relative="1" as="geometry">
            <mxPoint x="175.25" y="150" as="sourcePoint" />
            <mxPoint x="154.25" y="60" as="targetPoint" />
          </mxGeometry>
        </mxCell>
        <mxCell id="yA1wTyDyi_vaNBUE8qGH-104" value="" style="endArrow=classic;html=1;endSize=8;arcSize=0;rounded=0;exitX=1;exitY=0.9;exitDx=0;exitDy=0;entryX=0;entryY=0.9;entryDx=0;entryDy=0;" parent="1" source="yA1wTyDyi_vaNBUE8qGH-73" target="yA1wTyDyi_vaNBUE8qGH-77" edge="1">
          <mxGeometry width="50" height="50" relative="1" as="geometry">
            <mxPoint x="116.25" y="260" as="sourcePoint" />
            <mxPoint x="236.25" y="260" as="targetPoint" />
          </mxGeometry>
        </mxCell>
        <mxCell id="yA1wTyDyi_vaNBUE8qGH-105" value="&lt;div&gt;&lt;font style=&quot;font-size: 11px;&quot;&gt;ishi:hasFactor&lt;/font&gt;&lt;/div&gt;" style="text;html=1;align=center;verticalAlign=middle;resizable=0;points=[];labelBackgroundColor=#ffffff;" parent="yA1wTyDyi_vaNBUE8qGH-104" vertex="1" connectable="0">
          <mxGeometry x="-0.1269" relative="1" as="geometry">
            <mxPoint x="2" as="offset" />
          </mxGeometry>
        </mxCell>
        <mxCell id="yA1wTyDyi_vaNBUE8qGH-106" value="dads:depth: xsd:int" style="rounded=0;whiteSpace=wrap;html=1;snapToPoint=1;points=[[0.1,0],[0.2,0],[0.3,0],[0.4,0],[0.5,0],[0.6,0],[0.7,0],[0.8,0],[0.9,0],[0,0.1],[0,0.3],[0,0.5],[0,0.7],[0,0.9],[0.1,1],[0.2,1],[0.3,1],[0.4,1],[0.5,1],[0.6,1],[0.7,1],[0.8,1],[0.9,1],[1,0.1],[1,0.3],[1,0.5],[1,0.7],[1,0.9]];dashed=1;fillColor=none;strokeColor=#000000;" parent="1" vertex="1">
          <mxGeometry x="476.25" y="155" width="120" height="30" as="geometry" />
        </mxCell>
        <mxCell id="yA1wTyDyi_vaNBUE8qGH-108" value="" style="endArrow=block;html=1;fontColor=#000099;endFill=0;endSize=8;arcSize=0;rounded=0;exitX=0.5;exitY=1;exitDx=0;exitDy=0;" parent="1" source="yA1wTyDyi_vaNBUE8qGH-68" edge="1">
          <mxGeometry width="50" height="50" relative="1" as="geometry">
            <mxPoint x="326.25" y="275" as="sourcePoint" />
            <mxPoint x="416.25" y="155" as="targetPoint" />
          </mxGeometry>
        </mxCell>
        <mxCell id="yA1wTyDyi_vaNBUE8qGH-115" value="" style="endArrow=classic;html=1;endSize=8;arcSize=0;rounded=0;entryX=0;entryY=0.5;entryDx=0;entryDy=0;edgeStyle=orthogonalEdgeStyle;exitX=0.7;exitY=0;exitDx=0;exitDy=0;" parent="1" source="yA1wTyDyi_vaNBUE8qGH-73" target="yA1wTyDyi_vaNBUE8qGH-69" edge="1">
          <mxGeometry width="50" height="50" relative="1" as="geometry">
            <mxPoint x="226.25" y="192" as="sourcePoint" />
            <mxPoint x="346.25" y="192" as="targetPoint" />
          </mxGeometry>
        </mxCell>
        <mxCell id="yA1wTyDyi_vaNBUE8qGH-116" value="&lt;div&gt;&lt;font style=&quot;font-size: 11px;&quot;&gt;ishi:hasProblem&lt;/font&gt;&lt;/div&gt;" style="text;html=1;align=center;verticalAlign=middle;resizable=0;points=[];labelBackgroundColor=#ffffff;" parent="yA1wTyDyi_vaNBUE8qGH-115" vertex="1" connectable="0">
          <mxGeometry x="-0.1269" relative="1" as="geometry">
            <mxPoint x="30" y="23" as="offset" />
          </mxGeometry>
        </mxCell>
        <mxCell id="yA1wTyDyi_vaNBUE8qGH-117" value="" style="endArrow=block;html=1;fontColor=#000099;endFill=0;endSize=8;arcSize=0;rounded=0;entryX=0;entryY=0.5;entryDx=0;entryDy=0;exitX=1;exitY=0.5;exitDx=0;exitDy=0;" parent="1" source="yA1wTyDyi_vaNBUE8qGH-69" target="yA1wTyDyi_vaNBUE8qGH-68" edge="1">
          <mxGeometry width="50" height="50" relative="1" as="geometry">
            <mxPoint x="426.25" y="130" as="sourcePoint" />
            <mxPoint x="386.25" y="165" as="targetPoint" />
          </mxGeometry>
        </mxCell>
        <mxCell id="yA1wTyDyi_vaNBUE8qGH-118" value="dads:weight: xsd:decimal" style="rounded=0;whiteSpace=wrap;html=1;snapToPoint=1;points=[[0.1,0],[0.2,0],[0.3,0],[0.4,0],[0.5,0],[0.6,0],[0.7,0],[0.8,0],[0.9,0],[0,0.1],[0,0.3],[0,0.5],[0,0.7],[0,0.9],[0.1,1],[0.2,1],[0.3,1],[0.4,1],[0.5,1],[0.6,1],[0.7,1],[0.8,1],[0.9,1],[1,0.1],[1,0.3],[1,0.5],[1,0.7],[1,0.9]];dashed=1;fillColor=none;strokeColor=#97D077;" parent="1" vertex="1">
          <mxGeometry x="638.75" y="120" width="145" height="30" as="geometry" />
        </mxCell>
        <mxCell id="yA1wTyDyi_vaNBUE8qGH-119" value="" style="endArrow=classic;html=1;endSize=8;arcSize=0;rounded=0;entryX=0;entryY=0.5;entryDx=0;entryDy=0;edgeStyle=orthogonalEdgeStyle;" parent="1" target="yA1wTyDyi_vaNBUE8qGH-78" edge="1">
          <mxGeometry width="50" height="50" relative="1" as="geometry">
            <mxPoint x="466.25" y="105" as="sourcePoint" />
            <mxPoint x="246.25" y="115" as="targetPoint" />
            <Array as="points">
              <mxPoint x="466.25" y="105" />
              <mxPoint x="466.25" y="105" />
            </Array>
          </mxGeometry>
        </mxCell>
        <mxCell id="yA1wTyDyi_vaNBUE8qGH-120" value="&lt;div&gt;&lt;font style=&quot;font-size: 11px;&quot;&gt;ishi:hasCause&lt;/font&gt;&lt;/div&gt;" style="text;html=1;align=center;verticalAlign=middle;resizable=0;points=[];labelBackgroundColor=#ffffff;" parent="yA1wTyDyi_vaNBUE8qGH-119" vertex="1" connectable="0">
          <mxGeometry x="-0.1269" relative="1" as="geometry">
            <mxPoint x="7" as="offset" />
          </mxGeometry>
        </mxCell>
        <mxCell id="yA1wTyDyi_vaNBUE8qGH-121" value="" style="endArrow=block;html=1;fontColor=#000099;endFill=0;endSize=8;arcSize=0;rounded=0;exitX=1;exitY=0.1;exitDx=0;exitDy=0;entryX=0;entryY=0.3;entryDx=0;entryDy=0;edgeStyle=orthogonalEdgeStyle;" parent="1" source="yA1wTyDyi_vaNBUE8qGH-106" target="yA1wTyDyi_vaNBUE8qGH-79" edge="1">
          <mxGeometry width="50" height="50" relative="1" as="geometry">
            <mxPoint x="426.25" y="130" as="sourcePoint" />
            <mxPoint x="426.25" y="165" as="targetPoint" />
          </mxGeometry>
        </mxCell>
        <mxCell id="yA1wTyDyi_vaNBUE8qGH-122" value="" style="endArrow=classic;html=1;endSize=8;arcSize=0;rounded=0;exitX=0.55;exitY=0.084;exitDx=0;exitDy=0;exitPerimeter=0;" parent="1" source="yA1wTyDyi_vaNBUE8qGH-79" edge="1">
          <mxGeometry width="50" height="50" relative="1" as="geometry">
            <mxPoint x="476.25" y="115" as="sourcePoint" />
            <mxPoint x="719.25" y="151" as="targetPoint" />
          </mxGeometry>
        </mxCell>
        <mxCell id="yA1wTyDyi_vaNBUE8qGH-123" value="&lt;div&gt;&lt;font style=&quot;font-size: 11px;&quot;&gt;ishi:hasEffect&lt;/font&gt;&lt;/div&gt;" style="text;html=1;align=center;verticalAlign=middle;resizable=0;points=[];labelBackgroundColor=#ffffff;" parent="yA1wTyDyi_vaNBUE8qGH-122" vertex="1" connectable="0">
          <mxGeometry x="-0.1269" relative="1" as="geometry">
            <mxPoint x="-79" y="1" as="offset" />
          </mxGeometry>
        </mxCell>
        <mxCell id="yA1wTyDyi_vaNBUE8qGH-125" value="" style="endArrow=block;html=1;fontColor=#000099;endFill=0;endSize=8;arcSize=0;rounded=0;edgeStyle=orthogonalEdgeStyle;entryX=0.5;entryY=1;entryDx=0;entryDy=0;exitX=0.6;exitY=1;exitDx=0;exitDy=0;" parent="1" source="yA1wTyDyi_vaNBUE8qGH-77" target="yA1wTyDyi_vaNBUE8qGH-106" edge="1">
          <mxGeometry width="50" height="50" relative="1" as="geometry">
            <mxPoint x="486.25" y="200" as="sourcePoint" />
            <mxPoint x="496.25" y="200" as="targetPoint" />
            <Array as="points">
              <mxPoint x="414.25" y="210" />
              <mxPoint x="536.25" y="210" />
            </Array>
          </mxGeometry>
        </mxCell>
        <mxCell id="yA1wTyDyi_vaNBUE8qGH-127" value="" style="endArrow=classic;html=1;endSize=8;arcSize=0;rounded=0;entryX=0;entryY=0.5;entryDx=0;entryDy=0;edgeStyle=orthogonalEdgeStyle;exitX=0.549;exitY=0.923;exitDx=0;exitDy=0;exitPerimeter=0;" parent="1" source="yA1wTyDyi_vaNBUE8qGH-73" target="yA1wTyDyi_vaNBUE8qGH-72" edge="1">
          <mxGeometry width="50" height="50" relative="1" as="geometry">
            <mxPoint x="187.25" y="165" as="sourcePoint" />
            <mxPoint x="246.25" y="115" as="targetPoint" />
            <Array as="points">
              <mxPoint x="176.25" y="183" />
              <mxPoint x="176.25" y="294" />
            </Array>
          </mxGeometry>
        </mxCell>
        <mxCell id="yA1wTyDyi_vaNBUE8qGH-128" value="&lt;div&gt;&lt;font style=&quot;font-size: 11px;&quot;&gt;ishi:hasMajorCause&lt;/font&gt;&lt;/div&gt;" style="text;html=1;align=center;verticalAlign=middle;resizable=0;points=[];labelBackgroundColor=#ffffff;" parent="yA1wTyDyi_vaNBUE8qGH-127" vertex="1" connectable="0">
          <mxGeometry x="-0.1269" relative="1" as="geometry">
            <mxPoint x="-18" y="-15" as="offset" />
          </mxGeometry>
        </mxCell>
        <mxCell id="yA1wTyDyi_vaNBUE8qGH-130" value="" style="endArrow=block;html=1;fontColor=#000099;endFill=0;endSize=8;arcSize=0;rounded=0;exitX=1;exitY=0.5;exitDx=0;exitDy=0;entryX=0.5;entryY=1;entryDx=0;entryDy=0;edgeStyle=orthogonalEdgeStyle;" parent="1" source="yA1wTyDyi_vaNBUE8qGH-80" target="yA1wTyDyi_vaNBUE8qGH-79" edge="1">
          <mxGeometry width="50" height="50" relative="1" as="geometry">
            <mxPoint x="476.25" y="210" as="sourcePoint" />
            <mxPoint x="641.25" y="211" as="targetPoint" />
          </mxGeometry>
        </mxCell>
        <mxCell id="yA1wTyDyi_vaNBUE8qGH-131" value="" style="endArrow=block;html=1;fontColor=#000099;endFill=0;endSize=8;arcSize=0;rounded=0;entryX=0.5;entryY=0;entryDx=0;entryDy=0;edgeStyle=orthogonalEdgeStyle;exitX=0.5;exitY=1;exitDx=0;exitDy=0;" parent="1" source="yA1wTyDyi_vaNBUE8qGH-80" target="yA1wTyDyi_vaNBUE8qGH-60" edge="1">
          <mxGeometry width="50" height="50" relative="1" as="geometry">
            <mxPoint x="496.25" y="249" as="sourcePoint" />
            <mxPoint x="691.25" y="220" as="targetPoint" />
          </mxGeometry>
        </mxCell>
        <mxCell id="yA1wTyDyi_vaNBUE8qGH-132" value="" style="endArrow=classic;html=1;endSize=8;arcSize=0;rounded=0;entryX=0;entryY=0.5;entryDx=0;entryDy=0;edgeStyle=orthogonalEdgeStyle;exitX=0.534;exitY=1.008;exitDx=0;exitDy=0;exitPerimeter=0;" parent="1" source="yA1wTyDyi_vaNBUE8qGH-73" target="yA1wTyDyi_vaNBUE8qGH-80" edge="1">
          <mxGeometry width="50" height="50" relative="1" as="geometry">
            <mxPoint x="187.25" y="225" as="sourcePoint" />
            <mxPoint x="361.25" y="304" as="targetPoint" />
          </mxGeometry>
        </mxCell>
        <mxCell id="yA1wTyDyi_vaNBUE8qGH-133" value="&lt;div&gt;&lt;font style=&quot;font-size: 11px;&quot;&gt;ishi:hasRootCause&lt;/font&gt;&lt;/div&gt;" style="text;html=1;align=center;verticalAlign=middle;resizable=0;points=[];labelBackgroundColor=#ffffff;" parent="yA1wTyDyi_vaNBUE8qGH-132" vertex="1" connectable="0">
          <mxGeometry x="-0.1269" relative="1" as="geometry">
            <mxPoint x="29" as="offset" />
          </mxGeometry>
        </mxCell>
        <mxCell id="yA1wTyDyi_vaNBUE8qGH-134" value="" style="endArrow=block;html=1;fontColor=#000099;endFill=0;endSize=8;arcSize=0;rounded=0;entryX=0.5;entryY=1;entryDx=0;entryDy=0;exitX=0.5;exitY=0;exitDx=0;exitDy=0;" parent="1" source="yA1wTyDyi_vaNBUE8qGH-69" target="yA1wTyDyi_vaNBUE8qGH-54" edge="1">
          <mxGeometry width="50" height="50" relative="1" as="geometry">
            <mxPoint x="164.25" y="164" as="sourcePoint" />
            <mxPoint x="164.25" y="70" as="targetPoint" />
          </mxGeometry>
        </mxCell>
        <mxCell id="yA1wTyDyi_vaNBUE8qGH-135" value="&lt;span class=&quot;st&quot;&gt;⨆&lt;/span&gt;" style="ellipse;whiteSpace=wrap;html=1;aspect=fixed;fontSize=17;" parent="1" vertex="1">
          <mxGeometry x="736.25" y="234" width="30" height="30" as="geometry" />
        </mxCell>
        <mxCell id="yA1wTyDyi_vaNBUE8qGH-138" value="" style="endArrow=open;html=1;fontColor=#000099;exitX=1;exitY=0.5;exitDx=0;exitDy=0;endFill=0;dashed=1;entryX=0.534;entryY=0.01;entryDx=0;entryDy=0;endSize=8;arcSize=0;rounded=0;entryPerimeter=0;edgeStyle=orthogonalEdgeStyle;" parent="1" source="yA1wTyDyi_vaNBUE8qGH-135" target="yA1wTyDyi_vaNBUE8qGH-59" edge="1">
          <mxGeometry width="50" height="50" relative="1" as="geometry">
            <mxPoint x="658.25" y="220" as="sourcePoint" />
            <mxPoint x="816.25" y="220" as="targetPoint" />
          </mxGeometry>
        </mxCell>
        <mxCell id="yA1wTyDyi_vaNBUE8qGH-139" value="" style="endArrow=open;html=1;fontColor=#000099;endFill=0;dashed=1;entryX=1;entryY=0.5;entryDx=0;entryDy=0;endSize=8;arcSize=0;rounded=0;edgeStyle=orthogonalEdgeStyle;exitX=0.057;exitY=0.681;exitDx=0;exitDy=0;exitPerimeter=0;" parent="1" source="yA1wTyDyi_vaNBUE8qGH-135" target="yA1wTyDyi_vaNBUE8qGH-60" edge="1">
          <mxGeometry width="50" height="50" relative="1" as="geometry">
            <mxPoint x="695.25" y="257" as="sourcePoint" />
            <mxPoint x="883.25" y="195" as="targetPoint" />
          </mxGeometry>
        </mxCell>
        <mxCell id="yA1wTyDyi_vaNBUE8qGH-140" value="" style="endArrow=open;html=1;fontColor=#000099;exitX=0.9;exitY=1;exitDx=0;exitDy=0;endFill=0;dashed=1;entryX=0.5;entryY=0;entryDx=0;entryDy=0;endSize=8;arcSize=0;rounded=0;" parent="1" source="yA1wTyDyi_vaNBUE8qGH-79" target="yA1wTyDyi_vaNBUE8qGH-135" edge="1">
          <mxGeometry width="50" height="50" relative="1" as="geometry">
            <mxPoint x="736.25" y="259" as="sourcePoint" />
            <mxPoint x="785.25" y="289" as="targetPoint" />
          </mxGeometry>
        </mxCell>
        <mxCell id="yA1wTyDyi_vaNBUE8qGH-141" value="&lt;span class=&quot;st&quot;&gt;⨆&lt;/span&gt;" style="ellipse;whiteSpace=wrap;html=1;aspect=fixed;fontSize=17;" parent="1" vertex="1">
          <mxGeometry x="186.25" y="670" width="30" height="30" as="geometry" />
        </mxCell>
        <mxCell id="yA1wTyDyi_vaNBUE8qGH-145" value="unionOf" style="text;html=1;align=center;verticalAlign=middle;whiteSpace=wrap;rounded=0;" parent="1" vertex="1">
          <mxGeometry x="216.25" y="670" width="60" height="30" as="geometry" />
        </mxCell>
        <mxCell id="yA1wTyDyi_vaNBUE8qGH-148" value="fmea:Function" style="rounded=0;whiteSpace=wrap;html=1;snapToPoint=1;points=[[0.1,0],[0.2,0],[0.3,0],[0.4,0],[0.5,0],[0.6,0],[0.7,0],[0.8,0],[0.9,0],[0,0.1],[0,0.3],[0,0.5],[0,0.7],[0,0.9],[0.1,1],[0.2,1],[0.3,1],[0.4,1],[0.5,1],[0.6,1],[0.7,1],[0.8,1],[0.9,1],[1,0.1],[1,0.3],[1,0.5],[1,0.7],[1,0.9]];fillColor=#A9C4EB;strokeColor=#7EA6E0;" parent="1" vertex="1">
          <mxGeometry x="546.25" y="514.62" width="100" height="30" as="geometry" />
        </mxCell>
        <mxCell id="yA1wTyDyi_vaNBUE8qGH-149" value="fmea:FailureMode" style="rounded=0;whiteSpace=wrap;html=1;snapToPoint=1;points=[[0.1,0],[0.2,0],[0.3,0],[0.4,0],[0.5,0],[0.6,0],[0.7,0],[0.8,0],[0.9,0],[0,0.1],[0,0.3],[0,0.5],[0,0.7],[0,0.9],[0.1,1],[0.2,1],[0.3,1],[0.4,1],[0.5,1],[0.6,1],[0.7,1],[0.8,1],[0.9,1],[1,0.1],[1,0.3],[1,0.5],[1,0.7],[1,0.9]];fillColor=#A9C4EB;strokeColor=#7EA6E0;" parent="1" vertex="1">
          <mxGeometry x="186.25" y="370" width="130" height="30" as="geometry" />
        </mxCell>
        <mxCell id="yA1wTyDyi_vaNBUE8qGH-150" value="fmea:Cause" style="rounded=0;whiteSpace=wrap;html=1;snapToPoint=1;points=[[0.1,0],[0.2,0],[0.3,0],[0.4,0],[0.5,0],[0.6,0],[0.7,0],[0.8,0],[0.9,0],[0,0.1],[0,0.3],[0,0.5],[0,0.7],[0,0.9],[0.1,1],[0.2,1],[0.3,1],[0.4,1],[0.5,1],[0.6,1],[0.7,1],[0.8,1],[0.9,1],[1,0.1],[1,0.3],[1,0.5],[1,0.7],[1,0.9]];fillColor=#A9C4EB;strokeColor=#7EA6E0;" parent="1" vertex="1">
          <mxGeometry x="376.25" y="370" width="147.5" height="30" as="geometry" />
        </mxCell>
        <mxCell id="yA1wTyDyi_vaNBUE8qGH-151" value="fmea:Control" style="rounded=0;whiteSpace=wrap;html=1;snapToPoint=1;points=[[0.1,0],[0.2,0],[0.3,0],[0.4,0],[0.5,0],[0.6,0],[0.7,0],[0.8,0],[0.9,0],[0,0.1],[0,0.3],[0,0.5],[0,0.7],[0,0.9],[0.1,1],[0.2,1],[0.3,1],[0.4,1],[0.5,1],[0.6,1],[0.7,1],[0.8,1],[0.9,1],[1,0.1],[1,0.3],[1,0.5],[1,0.7],[1,0.9]];fillColor=#A9C4EB;strokeColor=#7EA6E0;" parent="1" vertex="1">
          <mxGeometry x="571.25" y="370" width="100" height="30" as="geometry" />
        </mxCell>
        <mxCell id="yA1wTyDyi_vaNBUE8qGH-152" value="fmea:Effect" style="rounded=0;whiteSpace=wrap;html=1;snapToPoint=1;points=[[0.1,0],[0.2,0],[0.3,0],[0.4,0],[0.5,0],[0.6,0],[0.7,0],[0.8,0],[0.9,0],[0,0.1],[0,0.3],[0,0.5],[0,0.7],[0,0.9],[0.1,1],[0.2,1],[0.3,1],[0.4,1],[0.5,1],[0.6,1],[0.7,1],[0.8,1],[0.9,1],[1,0.1],[1,0.3],[1,0.5],[1,0.7],[1,0.9]];fillColor=#A9C4EB;strokeColor=#7EA6E0;" parent="1" vertex="1">
          <mxGeometry x="26.25" y="370" width="130" height="30" as="geometry" />
        </mxCell>
        <mxCell id="yA1wTyDyi_vaNBUE8qGH-153" value="fmea:severity: xsd:int" style="rounded=0;whiteSpace=wrap;html=1;snapToPoint=1;points=[[0.1,0],[0.2,0],[0.3,0],[0.4,0],[0.5,0],[0.6,0],[0.7,0],[0.8,0],[0.9,0],[0,0.1],[0,0.3],[0,0.5],[0,0.7],[0,0.9],[0.1,1],[0.2,1],[0.3,1],[0.4,1],[0.5,1],[0.6,1],[0.7,1],[0.8,1],[0.9,1],[1,0.1],[1,0.3],[1,0.5],[1,0.7],[1,0.9]];dashed=1;fillColor=none;strokeColor=#7EA6E0;" parent="1" vertex="1">
          <mxGeometry x="26.25" y="400" width="130" height="30" as="geometry" />
        </mxCell>
        <mxCell id="yA1wTyDyi_vaNBUE8qGH-154" value="&amp;nbsp; fmea:occurrence: xsd:int&lt;div&gt;&amp;nbsp; fmea:detection: xsd:int&lt;/div&gt;" style="rounded=0;whiteSpace=wrap;html=1;snapToPoint=1;points=[[0.1,0],[0.2,0],[0.3,0],[0.4,0],[0.5,0],[0.6,0],[0.7,0],[0.8,0],[0.9,0],[0,0.1],[0,0.3],[0,0.5],[0,0.7],[0,0.9],[0.1,1],[0.2,1],[0.3,1],[0.4,1],[0.5,1],[0.6,1],[0.7,1],[0.8,1],[0.9,1],[1,0.1],[1,0.3],[1,0.5],[1,0.7],[1,0.9]];dashed=1;fillColor=none;strokeColor=#7EA6E0;align=left;" parent="1" vertex="1">
          <mxGeometry x="376.25" y="400" width="147.5" height="30" as="geometry" />
        </mxCell>
        <mxCell id="yA1wTyDyi_vaNBUE8qGH-156" value="fmea:Action" style="rounded=0;whiteSpace=wrap;html=1;snapToPoint=1;points=[[0.1,0],[0.2,0],[0.3,0],[0.4,0],[0.5,0],[0.6,0],[0.7,0],[0.8,0],[0.9,0],[0,0.1],[0,0.3],[0,0.5],[0,0.7],[0,0.9],[0.1,1],[0.2,1],[0.3,1],[0.4,1],[0.5,1],[0.6,1],[0.7,1],[0.8,1],[0.9,1],[1,0.1],[1,0.3],[1,0.5],[1,0.7],[1,0.9]];fillColor=#A9C4EB;strokeColor=#7EA6E0;" parent="1" vertex="1">
          <mxGeometry x="716.25" y="370" width="152.5" height="30" as="geometry" />
        </mxCell>
        <mxCell id="yA1wTyDyi_vaNBUE8qGH-157" value="&amp;nbsp;&amp;nbsp;&lt;span style=&quot;text-align: center; background-color: initial;&quot;&gt;fmea:severity: xsd:int&lt;/span&gt;&lt;div&gt;&amp;nbsp; fmea:occurrence: xsd:int&lt;div&gt;&amp;nbsp; fmea:detection: xsd:int&lt;/div&gt;&lt;/div&gt;&lt;div&gt;&amp;nbsp; fmea:rpn: xsd:int&lt;/div&gt;" style="rounded=0;whiteSpace=wrap;html=1;snapToPoint=1;points=[[0.1,0],[0.2,0],[0.3,0],[0.4,0],[0.5,0],[0.6,0],[0.7,0],[0.8,0],[0.9,0],[0,0.1],[0,0.3],[0,0.5],[0,0.7],[0,0.9],[0.1,1],[0.2,1],[0.3,1],[0.4,1],[0.5,1],[0.6,1],[0.7,1],[0.8,1],[0.9,1],[1,0.1],[1,0.3],[1,0.5],[1,0.7],[1,0.9]];dashed=1;fillColor=none;strokeColor=#7EA6E0;align=left;" parent="1" vertex="1">
          <mxGeometry x="716.25" y="400" width="152.5" height="60" as="geometry" />
        </mxCell>
        <mxCell id="yA1wTyDyi_vaNBUE8qGH-158" value="fmea:Worksheet" style="rounded=0;whiteSpace=wrap;html=1;snapToPoint=1;points=[[0.1,0],[0.2,0],[0.3,0],[0.4,0],[0.5,0],[0.6,0],[0.7,0],[0.8,0],[0.9,0],[0,0.1],[0,0.3],[0,0.5],[0,0.7],[0,0.9],[0.1,1],[0.2,1],[0.3,1],[0.4,1],[0.5,1],[0.6,1],[0.7,1],[0.8,1],[0.9,1],[1,0.1],[1,0.3],[1,0.5],[1,0.7],[1,0.9]];fillColor=#A9C4EB;strokeColor=#7EA6E0;" parent="1" vertex="1">
          <mxGeometry x="26.25" y="514.62" width="121.64" height="30" as="geometry" />
        </mxCell>
        <mxCell id="yA1wTyDyi_vaNBUE8qGH-160" value="fmea:WorkItem" style="rounded=0;whiteSpace=wrap;html=1;snapToPoint=1;points=[[0.1,0],[0.2,0],[0.3,0],[0.4,0],[0.5,0],[0.6,0],[0.7,0],[0.8,0],[0.9,0],[0,0.1],[0,0.3],[0,0.5],[0,0.7],[0,0.9],[0.1,1],[0.2,1],[0.3,1],[0.4,1],[0.5,1],[0.6,1],[0.7,1],[0.8,1],[0.9,1],[1,0.1],[1,0.3],[1,0.5],[1,0.7],[1,0.9]];fillColor=#A9C4EB;strokeColor=#7EA6E0;" parent="1" vertex="1">
          <mxGeometry x="247.89" y="514.62" width="100" height="30" as="geometry" />
        </mxCell>
        <mxCell id="yA1wTyDyi_vaNBUE8qGH-162" value="" style="endArrow=classic;html=1;endSize=8;arcSize=0;rounded=0;exitX=1;exitY=0.5;exitDx=0;exitDy=0;entryX=0;entryY=0.5;entryDx=0;entryDy=0;" parent="1" source="yA1wTyDyi_vaNBUE8qGH-158" target="yA1wTyDyi_vaNBUE8qGH-160" edge="1">
          <mxGeometry width="50" height="50" relative="1" as="geometry">
            <mxPoint x="167.89" y="554.62" as="sourcePoint" />
            <mxPoint x="287.89" y="554.62" as="targetPoint" />
          </mxGeometry>
        </mxCell>
        <mxCell id="yA1wTyDyi_vaNBUE8qGH-163" value="&lt;span style=&quot;font-size: 11px;&quot;&gt;fmea:hasItem&lt;/span&gt;" style="text;html=1;align=center;verticalAlign=middle;resizable=0;points=[];labelBackgroundColor=#ffffff;" parent="yA1wTyDyi_vaNBUE8qGH-162" vertex="1" connectable="0">
          <mxGeometry x="-0.1269" relative="1" as="geometry">
            <mxPoint x="2" as="offset" />
          </mxGeometry>
        </mxCell>
        <mxCell id="yA1wTyDyi_vaNBUE8qGH-164" value="" style="endArrow=classic;html=1;endSize=8;arcSize=0;rounded=0;exitX=0.5;exitY=0;exitDx=0;exitDy=0;entryX=0.6;entryY=1;entryDx=0;entryDy=0;edgeStyle=orthogonalEdgeStyle;" parent="1" source="yA1wTyDyi_vaNBUE8qGH-160" target="yA1wTyDyi_vaNBUE8qGH-153" edge="1">
          <mxGeometry width="50" height="50" relative="1" as="geometry">
            <mxPoint x="156.25" y="515" as="sourcePoint" />
            <mxPoint x="256.25" y="515" as="targetPoint" />
          </mxGeometry>
        </mxCell>
        <mxCell id="yA1wTyDyi_vaNBUE8qGH-165" value="&lt;span style=&quot;font-size: 11px;&quot;&gt;fmea:hasEffect&lt;/span&gt;" style="text;html=1;align=center;verticalAlign=middle;resizable=0;points=[];labelBackgroundColor=#ffffff;" parent="yA1wTyDyi_vaNBUE8qGH-164" vertex="1" connectable="0">
          <mxGeometry x="-0.1269" relative="1" as="geometry">
            <mxPoint x="2" as="offset" />
          </mxGeometry>
        </mxCell>
        <mxCell id="yA1wTyDyi_vaNBUE8qGH-166" value="" style="endArrow=classic;html=1;endSize=8;arcSize=0;rounded=0;entryX=0.865;entryY=1.019;entryDx=0;entryDy=0;entryPerimeter=0;exitX=0.5;exitY=0;exitDx=0;exitDy=0;" parent="1" edge="1" target="yA1wTyDyi_vaNBUE8qGH-172" source="yA1wTyDyi_vaNBUE8qGH-160">
          <mxGeometry width="50" height="50" relative="1" as="geometry">
            <mxPoint x="300" y="480" as="sourcePoint" />
            <mxPoint x="296.25" y="440" as="targetPoint" />
          </mxGeometry>
        </mxCell>
        <mxCell id="yA1wTyDyi_vaNBUE8qGH-167" value="&lt;span style=&quot;font-size: 11px;&quot;&gt;fmea:hasFailureMode&lt;/span&gt;" style="text;html=1;align=center;verticalAlign=middle;resizable=0;points=[];labelBackgroundColor=#ffffff;" parent="yA1wTyDyi_vaNBUE8qGH-166" vertex="1" connectable="0">
          <mxGeometry x="-0.1269" relative="1" as="geometry">
            <mxPoint x="7" y="-28" as="offset" />
          </mxGeometry>
        </mxCell>
        <mxCell id="yA1wTyDyi_vaNBUE8qGH-168" value="" style="endArrow=classic;html=1;endSize=8;arcSize=0;rounded=0;entryX=0.4;entryY=1;entryDx=0;entryDy=0;edgeStyle=orthogonalEdgeStyle;exitX=0.7;exitY=0;exitDx=0;exitDy=0;" parent="1" source="yA1wTyDyi_vaNBUE8qGH-160" target="yA1wTyDyi_vaNBUE8qGH-154" edge="1">
          <mxGeometry width="50" height="50" relative="1" as="geometry">
            <mxPoint x="346.25" y="500" as="sourcePoint" />
            <mxPoint x="252.25" y="411" as="targetPoint" />
          </mxGeometry>
        </mxCell>
        <mxCell id="yA1wTyDyi_vaNBUE8qGH-169" value="&lt;span style=&quot;font-size: 11px;&quot;&gt;fmea:hasCause&lt;/span&gt;" style="text;html=1;align=center;verticalAlign=middle;resizable=0;points=[];labelBackgroundColor=#ffffff;" parent="yA1wTyDyi_vaNBUE8qGH-168" vertex="1" connectable="0">
          <mxGeometry x="-0.1269" relative="1" as="geometry">
            <mxPoint x="10" y="-5" as="offset" />
          </mxGeometry>
        </mxCell>
        <mxCell id="yA1wTyDyi_vaNBUE8qGH-170" value="" style="endArrow=classic;html=1;endSize=8;arcSize=0;rounded=0;entryX=0.5;entryY=1;entryDx=0;entryDy=0;edgeStyle=orthogonalEdgeStyle;exitX=1;exitY=0.3;exitDx=0;exitDy=0;" parent="1" source="yA1wTyDyi_vaNBUE8qGH-160" target="yA1wTyDyi_vaNBUE8qGH-151" edge="1">
          <mxGeometry width="50" height="50" relative="1" as="geometry">
            <mxPoint x="356.25" y="510" as="sourcePoint" />
            <mxPoint x="445.25" y="440" as="targetPoint" />
            <Array as="points">
              <mxPoint x="348.25" y="490" />
              <mxPoint x="621.25" y="490" />
            </Array>
          </mxGeometry>
        </mxCell>
        <mxCell id="yA1wTyDyi_vaNBUE8qGH-171" value="&lt;span style=&quot;font-size: 11px;&quot;&gt;fmea:hasControl&lt;/span&gt;" style="text;html=1;align=center;verticalAlign=middle;resizable=0;points=[];labelBackgroundColor=#ffffff;" parent="yA1wTyDyi_vaNBUE8qGH-170" vertex="1" connectable="0">
          <mxGeometry x="-0.1269" relative="1" as="geometry">
            <mxPoint x="-55" y="-4" as="offset" />
          </mxGeometry>
        </mxCell>
        <mxCell id="yA1wTyDyi_vaNBUE8qGH-172" value="fmea:rpn: xsd:int" style="rounded=0;whiteSpace=wrap;html=1;snapToPoint=1;points=[[0.1,0],[0.2,0],[0.3,0],[0.4,0],[0.5,0],[0.6,0],[0.7,0],[0.8,0],[0.9,0],[0,0.1],[0,0.3],[0,0.5],[0,0.7],[0,0.9],[0.1,1],[0.2,1],[0.3,1],[0.4,1],[0.5,1],[0.6,1],[0.7,1],[0.8,1],[0.9,1],[1,0.1],[1,0.3],[1,0.5],[1,0.7],[1,0.9]];dashed=1;fillColor=none;strokeColor=#7EA6E0;" parent="1" vertex="1">
          <mxGeometry x="186.25" y="400" width="130" height="30" as="geometry" />
        </mxCell>
        <mxCell id="yA1wTyDyi_vaNBUE8qGH-173" value="" style="endArrow=classic;html=1;endSize=8;arcSize=0;rounded=0;exitX=1;exitY=0.7;exitDx=0;exitDy=0;entryX=0;entryY=0.7;entryDx=0;entryDy=0;" parent="1" source="yA1wTyDyi_vaNBUE8qGH-160" target="yA1wTyDyi_vaNBUE8qGH-148" edge="1">
          <mxGeometry width="50" height="50" relative="1" as="geometry">
            <mxPoint x="358.25" y="534" as="sourcePoint" />
            <mxPoint x="631.25" y="410" as="targetPoint" />
          </mxGeometry>
        </mxCell>
        <mxCell id="yA1wTyDyi_vaNBUE8qGH-174" value="&lt;span style=&quot;font-size: 11px;&quot;&gt;fmea:hasFunction&lt;/span&gt;" style="text;html=1;align=center;verticalAlign=middle;resizable=0;points=[];labelBackgroundColor=#ffffff;" parent="yA1wTyDyi_vaNBUE8qGH-173" vertex="1" connectable="0">
          <mxGeometry x="-0.1269" relative="1" as="geometry">
            <mxPoint x="6" y="-5" as="offset" />
          </mxGeometry>
        </mxCell>
        <mxCell id="yA1wTyDyi_vaNBUE8qGH-176" value="" style="endArrow=classic;html=1;endSize=8;arcSize=0;rounded=0;exitX=1;exitY=0.5;exitDx=0;exitDy=0;entryX=0.3;entryY=1;entryDx=0;entryDy=0;edgeStyle=orthogonalEdgeStyle;" parent="1" source="yA1wTyDyi_vaNBUE8qGH-160" target="yA1wTyDyi_vaNBUE8qGH-157" edge="1">
          <mxGeometry width="50" height="50" relative="1" as="geometry">
            <mxPoint x="358.25" y="546" as="sourcePoint" />
            <mxPoint x="556.25" y="546" as="targetPoint" />
            <Array as="points">
              <mxPoint x="348.25" y="510" />
              <mxPoint x="762.25" y="510" />
            </Array>
          </mxGeometry>
        </mxCell>
        <mxCell id="yA1wTyDyi_vaNBUE8qGH-177" value="&lt;span style=&quot;font-size: 11px;&quot;&gt;fmea:hasAction&lt;/span&gt;" style="text;html=1;align=center;verticalAlign=middle;resizable=0;points=[];labelBackgroundColor=#ffffff;" parent="yA1wTyDyi_vaNBUE8qGH-176" vertex="1" connectable="0">
          <mxGeometry x="-0.1269" relative="1" as="geometry">
            <mxPoint x="6" y="-5" as="offset" />
          </mxGeometry>
        </mxCell>
        <mxCell id="yA1wTyDyi_vaNBUE8qGH-178" value="fmea:no: string&lt;div&gt;fmea:desc: string&lt;/div&gt;" style="rounded=0;whiteSpace=wrap;html=1;snapToPoint=1;points=[[0.1,0],[0.2,0],[0.3,0],[0.4,0],[0.5,0],[0.6,0],[0.7,0],[0.8,0],[0.9,0],[0,0.1],[0,0.3],[0,0.5],[0,0.7],[0,0.9],[0.1,1],[0.2,1],[0.3,1],[0.4,1],[0.5,1],[0.6,1],[0.7,1],[0.8,1],[0.9,1],[1,0.1],[1,0.3],[1,0.5],[1,0.7],[1,0.9]];dashed=1;fillColor=none;strokeColor=#7EA6E0;" parent="1" vertex="1">
          <mxGeometry x="26.25" y="544.62" width="120" height="30" as="geometry" />
        </mxCell>
        <mxCell id="yA1wTyDyi_vaNBUE8qGH-179" value="" style="endArrow=none;dashed=1;html=1;rounded=0;strokeWidth=3;strokeColor=#7EA6E0;" parent="1" edge="1">
          <mxGeometry width="50" height="50" relative="1" as="geometry">
            <mxPoint x="10" y="590" as="sourcePoint" />
            <mxPoint x="890" y="596.5" as="targetPoint" />
          </mxGeometry>
        </mxCell>
        <mxCell id="yA1wTyDyi_vaNBUE8qGH-180" value="" style="endArrow=none;dashed=1;html=1;rounded=0;strokeWidth=3;strokeColor=#7EA6E0;" parent="1" edge="1">
          <mxGeometry width="50" height="50" relative="1" as="geometry">
            <mxPoint x="886.25" y="600" as="sourcePoint" />
            <mxPoint x="886.25" y="350" as="targetPoint" />
          </mxGeometry>
        </mxCell>
        <mxCell id="yA1wTyDyi_vaNBUE8qGH-181" value="" style="endArrow=none;dashed=1;html=1;rounded=0;strokeWidth=3;strokeColor=#7EA6E0;" parent="1" edge="1">
          <mxGeometry width="50" height="50" relative="1" as="geometry">
            <mxPoint x="16.25" y="590" as="sourcePoint" />
            <mxPoint x="16.25" y="340" as="targetPoint" />
          </mxGeometry>
        </mxCell>
        <mxCell id="yA1wTyDyi_vaNBUE8qGH-182" value="" style="endArrow=none;dashed=1;html=1;rounded=0;strokeWidth=3;strokeColor=#97D077;" parent="1" edge="1">
          <mxGeometry width="50" height="50" relative="1" as="geometry">
            <mxPoint x="156.25" y="70" as="sourcePoint" />
            <mxPoint x="896.25" y="76.5" as="targetPoint" />
          </mxGeometry>
        </mxCell>
        <mxCell id="yA1wTyDyi_vaNBUE8qGH-183" value="" style="endArrow=none;dashed=1;html=1;rounded=0;strokeWidth=3;strokeColor=#97D077;" parent="1" edge="1">
          <mxGeometry width="50" height="50" relative="1" as="geometry">
            <mxPoint x="476.25" y="270" as="sourcePoint" />
            <mxPoint x="890" y="270.5" as="targetPoint" />
          </mxGeometry>
        </mxCell>
        <mxCell id="yA1wTyDyi_vaNBUE8qGH-184" value="" style="endArrow=none;dashed=1;html=1;rounded=0;strokeWidth=3;strokeColor=#97D077;" parent="1" edge="1">
          <mxGeometry width="50" height="50" relative="1" as="geometry">
            <mxPoint x="886.25" y="270" as="sourcePoint" />
            <mxPoint x="886.25" y="80" as="targetPoint" />
          </mxGeometry>
        </mxCell>
        <mxCell id="yA1wTyDyi_vaNBUE8qGH-189" value="" style="endArrow=none;dashed=1;html=1;rounded=0;strokeWidth=3;strokeColor=#97D077;" parent="1" edge="1">
          <mxGeometry width="50" height="50" relative="1" as="geometry">
            <mxPoint x="75.96000000000001" y="320" as="sourcePoint" />
            <mxPoint x="76.25" y="140" as="targetPoint" />
          </mxGeometry>
        </mxCell>
        <mxCell id="yA1wTyDyi_vaNBUE8qGH-190" value="" style="endArrow=none;dashed=1;html=1;rounded=0;strokeWidth=3;strokeColor=#97D077;" parent="1" edge="1">
          <mxGeometry width="50" height="50" relative="1" as="geometry">
            <mxPoint x="79.38" y="320" as="sourcePoint" />
            <mxPoint x="493.13" y="320.5" as="targetPoint" />
          </mxGeometry>
        </mxCell>
        <mxCell id="yA1wTyDyi_vaNBUE8qGH-191" value="" style="endArrow=none;dashed=1;html=1;rounded=0;strokeWidth=3;strokeColor=#97D077;" parent="1" edge="1">
          <mxGeometry width="50" height="50" relative="1" as="geometry">
            <mxPoint x="156.25" y="75" as="sourcePoint" />
            <mxPoint x="156.25" y="140" as="targetPoint" />
          </mxGeometry>
        </mxCell>
        <mxCell id="yA1wTyDyi_vaNBUE8qGH-192" value="" style="endArrow=none;dashed=1;html=1;rounded=0;strokeWidth=3;strokeColor=#97D077;" parent="1" edge="1">
          <mxGeometry width="50" height="50" relative="1" as="geometry">
            <mxPoint x="76.25" y="150" as="sourcePoint" />
            <mxPoint x="156.25" y="150" as="targetPoint" />
          </mxGeometry>
        </mxCell>
        <mxCell id="yA1wTyDyi_vaNBUE8qGH-193" value="" style="endArrow=none;dashed=1;html=1;rounded=0;strokeWidth=3;strokeColor=#97D077;" parent="1" edge="1">
          <mxGeometry width="50" height="50" relative="1" as="geometry">
            <mxPoint x="476.25" y="274.5" as="sourcePoint" />
            <mxPoint x="476.25" y="313.5" as="targetPoint" />
            <Array as="points">
              <mxPoint x="476.25" y="294.5" />
            </Array>
          </mxGeometry>
        </mxCell>
      </root>
    </mxGraphModel>
  </diagram>
</mxfile>
